<svg width="48" height="48" viewBox="0 0 48 48" fill="none" xmlns="http://www.w3.org/2000/svg">
<g clip-path="url(#clip0_40_10)">
<rect width="48" height="48" rx="8" fill="white"/>
<rect width="48" height="48" rx="8" fill="url(#paint0_linear_40_10)"/>
<path d="M24.44 33.872C25.048 33.872 25.6933 33.808 26.376 33.68C27.0587 33.552 27.7253 33.3653 28.376 33.12C29.0373 32.864 29.6187 32.56 30.12 32.208L28.584 33.936L30.936 26.208L28.168 25.504L28.344 24.96H35.832L35.672 25.504L33.48 26.224L31.672 32.192L32.008 33.504L31.976 33.6C31.1333 33.92 30.2853 34.192 29.432 34.416C28.5893 34.6293 27.752 34.784 26.92 34.88C26.088 34.9867 25.2613 35.04 24.44 35.04C22.456 35.04 20.76 34.6987 19.352 34.016C17.944 33.3333 16.8667 32.3627 16.12 31.104C15.3733 29.8347 15 28.3307 15 26.592C15 24.9493 15.24 23.4133 15.72 21.984C16.2107 20.5547 16.904 19.264 17.8 18.112C18.696 16.96 19.752 15.9733 20.968 15.152C22.1947 14.32 23.5387 13.6853 25 13.248C26.472 12.8107 28.0293 12.592 29.672 12.592C30.2267 12.592 30.7707 12.6133 31.304 12.656C31.848 12.6987 32.3813 12.7733 32.904 12.88C33.4373 12.976 33.9653 13.1147 34.488 13.296L33.4 13.328L35.688 12H35.944L34.744 19.504H34.136L33.096 14.496L33.864 15.344C33.096 14.7573 32.3547 14.352 31.64 14.128C30.9253 13.904 30.072 13.792 29.08 13.792C27.7253 13.792 26.4667 14 25.304 14.416C24.1413 14.832 23.0907 15.424 22.152 16.192C21.224 16.96 20.424 17.8667 19.752 18.912C19.0907 19.9573 18.584 21.1093 18.232 22.368C17.8907 23.616 17.72 24.9387 17.72 26.336C17.72 28 17.9813 29.392 18.504 30.512C19.0267 31.632 19.7893 32.4747 20.792 33.04C21.7947 33.5947 23.0107 33.872 24.44 33.872Z" fill="#131313"/>
</g>
<defs>
<linearGradient id="paint0_linear_40_10" x1="24" y1="0" x2="24" y2="48" gradientUnits="userSpaceOnUse">
<stop stop-color="white"/>
<stop offset="1" stop-color="#F5F5F5"/>
</linearGradient>
<clipPath id="clip0_40_10">
<rect width="48" height="48" rx="8" fill="white"/>
</clipPath>
</defs>
</svg>
